<svg id="wave" style="transform:rotate(0deg); transition: 0.3s" viewBox="0 0 1440 490" version="1.1" xmlns="http://www.w3.org/2000/svg"><defs><linearGradient id="sw-gradient-0" x1="0" x2="0" y1="1" y2="0"><stop stop-color="rgba(13, 165, 242, 1)" offset="0%"></stop><stop stop-color="rgba(13, 165, 242, 1)" offset="100%"></stop></linearGradient></defs><path style="transform:translate(0, 0px); opacity:1" fill="url(#sw-gradient-0)" d="M0,245L80,220.5C160,196,320,147,480,138.8C640,131,800,163,960,171.5C1120,180,1280,163,1440,171.5C1600,180,1760,212,1920,228.7C2080,245,2240,245,2400,220.5C2560,196,2720,147,2880,147C3040,147,3200,196,3360,179.7C3520,163,3680,82,3840,81.7C4000,82,4160,163,4320,236.8C4480,310,4640,376,4800,400.2C4960,425,5120,408,5280,367.5C5440,327,5600,261,5760,261.3C5920,261,6080,327,6240,334.8C6400,343,6560,294,6720,277.7C6880,261,7040,278,7200,261.3C7360,245,7520,196,7680,220.5C7840,245,8000,343,8160,367.5C8320,392,8480,343,8640,326.7C8800,310,8960,327,9120,334.8C9280,343,9440,343,9600,326.7C9760,310,9920,278,10080,277.7C10240,278,10400,310,10560,318.5C10720,327,10880,310,11040,277.7C11200,245,11360,196,11440,171.5L11520,147L11520,490L11440,490C11360,490,11200,490,11040,490C10880,490,10720,490,10560,490C10400,490,10240,490,10080,490C9920,490,9760,490,9600,490C9440,490,9280,490,9120,490C8960,490,8800,490,8640,490C8480,490,8320,490,8160,490C8000,490,7840,490,7680,490C7520,490,7360,490,7200,490C7040,490,6880,490,6720,490C6560,490,6400,490,6240,490C6080,490,5920,490,5760,490C5600,490,5440,490,5280,490C5120,490,4960,490,4800,490C4640,490,4480,490,4320,490C4160,490,4000,490,3840,490C3680,490,3520,490,3360,490C3200,490,3040,490,2880,490C2720,490,2560,490,2400,490C2240,490,2080,490,1920,490C1760,490,1600,490,1440,490C1280,490,1120,490,960,490C800,490,640,490,480,490C320,490,160,490,80,490L0,490Z"></path></svg>