<svg width="9" height="5" viewBox="0 0 9 5" fill="none" xmlns="http://www.w3.org/2000/svg">
<mask id="path-1-outside-1_10_9" maskUnits="userSpaceOnUse" x="-0.800781" y="-0.0292969" width="10" height="5" fill="black">
<rect fill="white" x="-0.800781" y="-0.0292969" width="10" height="5"/>
<path d="M1.57617 3.47852C1.63477 3.36133 1.70898 3.2168 1.79883 3.04492C1.89258 2.86914 1.98828 2.69336 2.08594 2.51758C2.1875 2.3418 2.28516 2.17578 2.37891 2.01953C2.47656 1.86328 2.55859 1.74414 2.625 1.66211C2.73828 1.52539 2.85547 1.42773 2.97656 1.36914C3.09766 1.31055 3.20898 1.28125 3.31055 1.28125C3.41211 1.28125 3.49805 1.30273 3.56836 1.3457C3.64258 1.38867 3.70312 1.44727 3.75 1.52148C3.79688 1.5918 3.83203 1.67578 3.85547 1.77344C3.87891 1.86719 3.89062 1.96875 3.89062 2.07812C3.89062 2.14062 3.88672 2.22266 3.87891 2.32422C3.875 2.42578 3.86914 2.53516 3.86133 2.65234C3.85742 2.76953 3.85156 2.89062 3.84375 3.01562C3.83984 3.14062 3.83594 3.25781 3.83203 3.36719C3.89062 3.25 3.95703 3.12109 4.03125 2.98047C4.10547 2.83594 4.17969 2.69336 4.25391 2.55273C4.33203 2.41211 4.40625 2.28125 4.47656 2.16016C4.54688 2.03516 4.61133 1.93359 4.66992 1.85547C4.83789 1.625 4.99414 1.4707 5.13867 1.39258C5.28711 1.31445 5.41797 1.27539 5.53125 1.27539C5.66406 1.27539 5.77344 1.30078 5.85938 1.35156C5.94531 1.39844 6.01172 1.46094 6.05859 1.53906C6.10938 1.61328 6.14453 1.69727 6.16406 1.79102C6.18359 1.88477 6.19336 1.97461 6.19336 2.06055C6.19336 2.19336 6.18359 2.33203 6.16406 2.47656C6.14453 2.62109 6.13477 2.79297 6.13477 2.99219C6.13477 3.07422 6.13867 3.15625 6.14648 3.23828C6.1543 3.32031 6.16992 3.39258 6.19336 3.45508C6.2207 3.51758 6.26172 3.56836 6.31641 3.60742C6.37109 3.64648 6.44531 3.66602 6.53906 3.66602C6.64062 3.66602 6.74023 3.64062 6.83789 3.58984C6.93555 3.53516 7.0293 3.46484 7.11914 3.37891C7.20898 3.29297 7.29297 3.19531 7.37109 3.08594C7.45312 2.97656 7.52734 2.86719 7.59375 2.75781C7.66016 2.64844 7.71875 2.54492 7.76953 2.44727C7.82031 2.3457 7.86133 2.25977 7.89258 2.18945C7.91211 2.14648 7.93945 2.11328 7.97461 2.08984C8.00977 2.06641 8.04883 2.05469 8.0918 2.05469C8.1582 2.05469 8.21094 2.08008 8.25 2.13086C8.29297 2.17773 8.31445 2.22852 8.31445 2.2832C8.31445 2.31055 8.30859 2.33789 8.29688 2.36523C8.28125 2.39648 8.25 2.46289 8.20312 2.56445C8.15625 2.66211 8.09375 2.77539 8.01562 2.9043C7.9375 3.0293 7.8457 3.16211 7.74023 3.30273C7.63867 3.44336 7.52539 3.57422 7.40039 3.69531C7.27539 3.8125 7.14062 3.91016 6.99609 3.98828C6.85156 4.0625 6.69922 4.09961 6.53906 4.09961C6.36719 4.09961 6.22656 4.06836 6.11719 4.00586C6.01172 3.94727 5.92578 3.86719 5.85938 3.76562C5.79688 3.66406 5.75391 3.54688 5.73047 3.41406C5.70703 3.28125 5.69531 3.14258 5.69531 2.99805C5.69531 2.80664 5.70508 2.63086 5.72461 2.4707C5.74414 2.30664 5.75391 2.17969 5.75391 2.08984C5.75391 1.99219 5.74414 1.91797 5.72461 1.86719C5.70898 1.81641 5.6875 1.78125 5.66016 1.76172C5.63672 1.73828 5.61328 1.72656 5.58984 1.72656C5.56641 1.72266 5.54883 1.7207 5.53711 1.7207C5.44336 1.7207 5.34375 1.77344 5.23828 1.87891C5.13672 1.98047 5.03125 2.11719 4.92188 2.28906C4.8125 2.46094 4.69922 2.65625 4.58203 2.875C4.46875 3.09375 4.35352 3.31641 4.23633 3.54297C4.16992 3.66797 4.11328 3.77148 4.06641 3.85352C4.02344 3.93555 3.98047 4 3.9375 4.04688C3.89844 4.09375 3.85938 4.12695 3.82031 4.14648C3.78125 4.16602 3.73828 4.17578 3.69141 4.17578C3.58984 4.17578 3.51172 4.14062 3.45703 4.07031C3.40625 4 3.38086 3.9082 3.38086 3.79492C3.38086 3.73633 3.38281 3.6582 3.38672 3.56055C3.39062 3.46289 3.39453 3.35547 3.39844 3.23828C3.40234 3.12109 3.4082 3 3.41602 2.875C3.42383 2.75 3.42969 2.63086 3.43359 2.51758C3.4375 2.40039 3.44141 2.29688 3.44531 2.20703C3.44922 2.11719 3.45117 2.04883 3.45117 2.00195C3.45117 1.90039 3.43359 1.82812 3.39844 1.78516C3.36328 1.73828 3.32227 1.71484 3.27539 1.71484C3.23242 1.71484 3.18359 1.73047 3.12891 1.76172C3.07812 1.79297 3.01758 1.85352 2.94727 1.94336C2.89258 2.01367 2.82227 2.11719 2.73633 2.25391C2.6543 2.38672 2.56641 2.53516 2.47266 2.69922C2.37891 2.86328 2.28516 3.03125 2.19141 3.20312C2.10156 3.375 2.02344 3.5293 1.95703 3.66602C1.875 3.83008 1.79297 3.94141 1.71094 4C1.62891 4.0625 1.54883 4.09375 1.4707 4.09375C1.35742 4.09375 1.27344 4.06055 1.21875 3.99414C1.16406 3.92383 1.13672 3.83203 1.13672 3.71875C1.13672 3.70703 1.13867 3.63672 1.14258 3.50781C1.15039 3.37891 1.1582 3.22266 1.16602 3.03906C1.17383 2.85156 1.18164 2.65234 1.18945 2.44141C1.20117 2.23047 1.21094 2.0332 1.21875 1.84961C1.22266 1.75195 1.21875 1.66211 1.20703 1.58008C1.19531 1.49805 1.17969 1.44922 1.16016 1.43359C1.12891 1.44141 1.06641 1.51367 0.972656 1.65039C0.882812 1.78711 0.767578 2.02539 0.626953 2.36523C0.607422 2.4082 0.578125 2.44141 0.539062 2.46484C0.5 2.48828 0.458984 2.5 0.416016 2.5C0.349609 2.5 0.296875 2.47852 0.257812 2.43555C0.21875 2.38867 0.199219 2.33594 0.199219 2.27734C0.199219 2.25 0.205078 2.2207 0.216797 2.18945C0.392578 1.77148 0.560547 1.46484 0.720703 1.26953C0.880859 1.07031 1.03711 0.970703 1.18945 0.970703C1.2793 0.970703 1.35352 0.992188 1.41211 1.03516C1.47461 1.07422 1.52344 1.12695 1.55859 1.19336C1.59375 1.25586 1.61914 1.32812 1.63477 1.41016C1.65039 1.49219 1.6582 1.57227 1.6582 1.65039C1.6582 1.99805 1.64844 2.31641 1.62891 2.60547C1.61328 2.89453 1.5957 3.18555 1.57617 3.47852Z"/>
</mask>
<path d="M1.57617 3.47852C1.63477 3.36133 1.70898 3.2168 1.79883 3.04492C1.89258 2.86914 1.98828 2.69336 2.08594 2.51758C2.1875 2.3418 2.28516 2.17578 2.37891 2.01953C2.47656 1.86328 2.55859 1.74414 2.625 1.66211C2.73828 1.52539 2.85547 1.42773 2.97656 1.36914C3.09766 1.31055 3.20898 1.28125 3.31055 1.28125C3.41211 1.28125 3.49805 1.30273 3.56836 1.3457C3.64258 1.38867 3.70312 1.44727 3.75 1.52148C3.79688 1.5918 3.83203 1.67578 3.85547 1.77344C3.87891 1.86719 3.89062 1.96875 3.89062 2.07812C3.89062 2.14062 3.88672 2.22266 3.87891 2.32422C3.875 2.42578 3.86914 2.53516 3.86133 2.65234C3.85742 2.76953 3.85156 2.89062 3.84375 3.01562C3.83984 3.14062 3.83594 3.25781 3.83203 3.36719C3.89062 3.25 3.95703 3.12109 4.03125 2.98047C4.10547 2.83594 4.17969 2.69336 4.25391 2.55273C4.33203 2.41211 4.40625 2.28125 4.47656 2.16016C4.54688 2.03516 4.61133 1.93359 4.66992 1.85547C4.83789 1.625 4.99414 1.4707 5.13867 1.39258C5.28711 1.31445 5.41797 1.27539 5.53125 1.27539C5.66406 1.27539 5.77344 1.30078 5.85938 1.35156C5.94531 1.39844 6.01172 1.46094 6.05859 1.53906C6.10938 1.61328 6.14453 1.69727 6.16406 1.79102C6.18359 1.88477 6.19336 1.97461 6.19336 2.06055C6.19336 2.19336 6.18359 2.33203 6.16406 2.47656C6.14453 2.62109 6.13477 2.79297 6.13477 2.99219C6.13477 3.07422 6.13867 3.15625 6.14648 3.23828C6.1543 3.32031 6.16992 3.39258 6.19336 3.45508C6.2207 3.51758 6.26172 3.56836 6.31641 3.60742C6.37109 3.64648 6.44531 3.66602 6.53906 3.66602C6.64062 3.66602 6.74023 3.64062 6.83789 3.58984C6.93555 3.53516 7.0293 3.46484 7.11914 3.37891C7.20898 3.29297 7.29297 3.19531 7.37109 3.08594C7.45312 2.97656 7.52734 2.86719 7.59375 2.75781C7.66016 2.64844 7.71875 2.54492 7.76953 2.44727C7.82031 2.3457 7.86133 2.25977 7.89258 2.18945C7.91211 2.14648 7.93945 2.11328 7.97461 2.08984C8.00977 2.06641 8.04883 2.05469 8.0918 2.05469C8.1582 2.05469 8.21094 2.08008 8.25 2.13086C8.29297 2.17773 8.31445 2.22852 8.31445 2.2832C8.31445 2.31055 8.30859 2.33789 8.29688 2.36523C8.28125 2.39648 8.25 2.46289 8.20312 2.56445C8.15625 2.66211 8.09375 2.77539 8.01562 2.9043C7.9375 3.0293 7.8457 3.16211 7.74023 3.30273C7.63867 3.44336 7.52539 3.57422 7.40039 3.69531C7.27539 3.8125 7.14062 3.91016 6.99609 3.98828C6.85156 4.0625 6.69922 4.09961 6.53906 4.09961C6.36719 4.09961 6.22656 4.06836 6.11719 4.00586C6.01172 3.94727 5.92578 3.86719 5.85938 3.76562C5.79688 3.66406 5.75391 3.54688 5.73047 3.41406C5.70703 3.28125 5.69531 3.14258 5.69531 2.99805C5.69531 2.80664 5.70508 2.63086 5.72461 2.4707C5.74414 2.30664 5.75391 2.17969 5.75391 2.08984C5.75391 1.99219 5.74414 1.91797 5.72461 1.86719C5.70898 1.81641 5.6875 1.78125 5.66016 1.76172C5.63672 1.73828 5.61328 1.72656 5.58984 1.72656C5.56641 1.72266 5.54883 1.7207 5.53711 1.7207C5.44336 1.7207 5.34375 1.77344 5.23828 1.87891C5.13672 1.98047 5.03125 2.11719 4.92188 2.28906C4.8125 2.46094 4.69922 2.65625 4.58203 2.875C4.46875 3.09375 4.35352 3.31641 4.23633 3.54297C4.16992 3.66797 4.11328 3.77148 4.06641 3.85352C4.02344 3.93555 3.98047 4 3.9375 4.04688C3.89844 4.09375 3.85938 4.12695 3.82031 4.14648C3.78125 4.16602 3.73828 4.17578 3.69141 4.17578C3.58984 4.17578 3.51172 4.14062 3.45703 4.07031C3.40625 4 3.38086 3.9082 3.38086 3.79492C3.38086 3.73633 3.38281 3.6582 3.38672 3.56055C3.39062 3.46289 3.39453 3.35547 3.39844 3.23828C3.40234 3.12109 3.4082 3 3.41602 2.875C3.42383 2.75 3.42969 2.63086 3.43359 2.51758C3.4375 2.40039 3.44141 2.29688 3.44531 2.20703C3.44922 2.11719 3.45117 2.04883 3.45117 2.00195C3.45117 1.90039 3.43359 1.82812 3.39844 1.78516C3.36328 1.73828 3.32227 1.71484 3.27539 1.71484C3.23242 1.71484 3.18359 1.73047 3.12891 1.76172C3.07812 1.79297 3.01758 1.85352 2.94727 1.94336C2.89258 2.01367 2.82227 2.11719 2.73633 2.25391C2.6543 2.38672 2.56641 2.53516 2.47266 2.69922C2.37891 2.86328 2.28516 3.03125 2.19141 3.20312C2.10156 3.375 2.02344 3.5293 1.95703 3.66602C1.875 3.83008 1.79297 3.94141 1.71094 4C1.62891 4.0625 1.54883 4.09375 1.4707 4.09375C1.35742 4.09375 1.27344 4.06055 1.21875 3.99414C1.16406 3.92383 1.13672 3.83203 1.13672 3.71875C1.13672 3.70703 1.13867 3.63672 1.14258 3.50781C1.15039 3.37891 1.1582 3.22266 1.16602 3.03906C1.17383 2.85156 1.18164 2.65234 1.18945 2.44141C1.20117 2.23047 1.21094 2.0332 1.21875 1.84961C1.22266 1.75195 1.21875 1.66211 1.20703 1.58008C1.19531 1.49805 1.17969 1.44922 1.16016 1.43359C1.12891 1.44141 1.06641 1.51367 0.972656 1.65039C0.882812 1.78711 0.767578 2.02539 0.626953 2.36523C0.607422 2.4082 0.578125 2.44141 0.539062 2.46484C0.5 2.48828 0.458984 2.5 0.416016 2.5C0.349609 2.5 0.296875 2.47852 0.257812 2.43555C0.21875 2.38867 0.199219 2.33594 0.199219 2.27734C0.199219 2.25 0.205078 2.2207 0.216797 2.18945C0.392578 1.77148 0.560547 1.46484 0.720703 1.26953C0.880859 1.07031 1.03711 0.970703 1.18945 0.970703C1.2793 0.970703 1.35352 0.992188 1.41211 1.03516C1.47461 1.07422 1.52344 1.12695 1.55859 1.19336C1.59375 1.25586 1.61914 1.32812 1.63477 1.41016C1.65039 1.49219 1.6582 1.57227 1.6582 1.65039C1.6582 1.99805 1.64844 2.31641 1.62891 2.60547C1.61328 2.89453 1.5957 3.18555 1.57617 3.47852Z" fill="#F25A0D"/>
<path d="M1.57617 3.47852C1.63477 3.36133 1.70898 3.2168 1.79883 3.04492C1.89258 2.86914 1.98828 2.69336 2.08594 2.51758C2.1875 2.3418 2.28516 2.17578 2.37891 2.01953C2.47656 1.86328 2.55859 1.74414 2.625 1.66211C2.73828 1.52539 2.85547 1.42773 2.97656 1.36914C3.09766 1.31055 3.20898 1.28125 3.31055 1.28125C3.41211 1.28125 3.49805 1.30273 3.56836 1.3457C3.64258 1.38867 3.70312 1.44727 3.75 1.52148C3.79688 1.5918 3.83203 1.67578 3.85547 1.77344C3.87891 1.86719 3.89062 1.96875 3.89062 2.07812C3.89062 2.14062 3.88672 2.22266 3.87891 2.32422C3.875 2.42578 3.86914 2.53516 3.86133 2.65234C3.85742 2.76953 3.85156 2.89062 3.84375 3.01562C3.83984 3.14062 3.83594 3.25781 3.83203 3.36719C3.89062 3.25 3.95703 3.12109 4.03125 2.98047C4.10547 2.83594 4.17969 2.69336 4.25391 2.55273C4.33203 2.41211 4.40625 2.28125 4.47656 2.16016C4.54688 2.03516 4.61133 1.93359 4.66992 1.85547C4.83789 1.625 4.99414 1.4707 5.13867 1.39258C5.28711 1.31445 5.41797 1.27539 5.53125 1.27539C5.66406 1.27539 5.77344 1.30078 5.85938 1.35156C5.94531 1.39844 6.01172 1.46094 6.05859 1.53906C6.10938 1.61328 6.14453 1.69727 6.16406 1.79102C6.18359 1.88477 6.19336 1.97461 6.19336 2.06055C6.19336 2.19336 6.18359 2.33203 6.16406 2.47656C6.14453 2.62109 6.13477 2.79297 6.13477 2.99219C6.13477 3.07422 6.13867 3.15625 6.14648 3.23828C6.1543 3.32031 6.16992 3.39258 6.19336 3.45508C6.2207 3.51758 6.26172 3.56836 6.31641 3.60742C6.37109 3.64648 6.44531 3.66602 6.53906 3.66602C6.64062 3.66602 6.74023 3.64062 6.83789 3.58984C6.93555 3.53516 7.0293 3.46484 7.11914 3.37891C7.20898 3.29297 7.29297 3.19531 7.37109 3.08594C7.45312 2.97656 7.52734 2.86719 7.59375 2.75781C7.66016 2.64844 7.71875 2.54492 7.76953 2.44727C7.82031 2.3457 7.86133 2.25977 7.89258 2.18945C7.91211 2.14648 7.93945 2.11328 7.97461 2.08984C8.00977 2.06641 8.04883 2.05469 8.0918 2.05469C8.1582 2.05469 8.21094 2.08008 8.25 2.13086C8.29297 2.17773 8.31445 2.22852 8.31445 2.2832C8.31445 2.31055 8.30859 2.33789 8.29688 2.36523C8.28125 2.39648 8.25 2.46289 8.20312 2.56445C8.15625 2.66211 8.09375 2.77539 8.01562 2.9043C7.9375 3.0293 7.8457 3.16211 7.74023 3.30273C7.63867 3.44336 7.52539 3.57422 7.40039 3.69531C7.27539 3.8125 7.14062 3.91016 6.99609 3.98828C6.85156 4.0625 6.69922 4.09961 6.53906 4.09961C6.36719 4.09961 6.22656 4.06836 6.11719 4.00586C6.01172 3.94727 5.92578 3.86719 5.85938 3.76562C5.79688 3.66406 5.75391 3.54688 5.73047 3.41406C5.70703 3.28125 5.69531 3.14258 5.69531 2.99805C5.69531 2.80664 5.70508 2.63086 5.72461 2.4707C5.74414 2.30664 5.75391 2.17969 5.75391 2.08984C5.75391 1.99219 5.74414 1.91797 5.72461 1.86719C5.70898 1.81641 5.6875 1.78125 5.66016 1.76172C5.63672 1.73828 5.61328 1.72656 5.58984 1.72656C5.56641 1.72266 5.54883 1.7207 5.53711 1.7207C5.44336 1.7207 5.34375 1.77344 5.23828 1.87891C5.13672 1.98047 5.03125 2.11719 4.92188 2.28906C4.8125 2.46094 4.69922 2.65625 4.58203 2.875C4.46875 3.09375 4.35352 3.31641 4.23633 3.54297C4.16992 3.66797 4.11328 3.77148 4.06641 3.85352C4.02344 3.93555 3.98047 4 3.9375 4.04688C3.89844 4.09375 3.85938 4.12695 3.82031 4.14648C3.78125 4.16602 3.73828 4.17578 3.69141 4.17578C3.58984 4.17578 3.51172 4.14062 3.45703 4.07031C3.40625 4 3.38086 3.9082 3.38086 3.79492C3.38086 3.73633 3.38281 3.6582 3.38672 3.56055C3.39062 3.46289 3.39453 3.35547 3.39844 3.23828C3.40234 3.12109 3.4082 3 3.41602 2.875C3.42383 2.75 3.42969 2.63086 3.43359 2.51758C3.4375 2.40039 3.44141 2.29688 3.44531 2.20703C3.44922 2.11719 3.45117 2.04883 3.45117 2.00195C3.45117 1.90039 3.43359 1.82812 3.39844 1.78516C3.36328 1.73828 3.32227 1.71484 3.27539 1.71484C3.23242 1.71484 3.18359 1.73047 3.12891 1.76172C3.07812 1.79297 3.01758 1.85352 2.94727 1.94336C2.89258 2.01367 2.82227 2.11719 2.73633 2.25391C2.6543 2.38672 2.56641 2.53516 2.47266 2.69922C2.37891 2.86328 2.28516 3.03125 2.19141 3.20312C2.10156 3.375 2.02344 3.5293 1.95703 3.66602C1.875 3.83008 1.79297 3.94141 1.71094 4C1.62891 4.0625 1.54883 4.09375 1.4707 4.09375C1.35742 4.09375 1.27344 4.06055 1.21875 3.99414C1.16406 3.92383 1.13672 3.83203 1.13672 3.71875C1.13672 3.70703 1.13867 3.63672 1.14258 3.50781C1.15039 3.37891 1.1582 3.22266 1.16602 3.03906C1.17383 2.85156 1.18164 2.65234 1.18945 2.44141C1.20117 2.23047 1.21094 2.0332 1.21875 1.84961C1.22266 1.75195 1.21875 1.66211 1.20703 1.58008C1.19531 1.49805 1.17969 1.44922 1.16016 1.43359C1.12891 1.44141 1.06641 1.51367 0.972656 1.65039C0.882812 1.78711 0.767578 2.02539 0.626953 2.36523C0.607422 2.4082 0.578125 2.44141 0.539062 2.46484C0.5 2.48828 0.458984 2.5 0.416016 2.5C0.349609 2.5 0.296875 2.47852 0.257812 2.43555C0.21875 2.38867 0.199219 2.33594 0.199219 2.27734C0.199219 2.25 0.205078 2.2207 0.216797 2.18945C0.392578 1.77148 0.560547 1.46484 0.720703 1.26953C0.880859 1.07031 1.03711 0.970703 1.18945 0.970703C1.2793 0.970703 1.35352 0.992188 1.41211 1.03516C1.47461 1.07422 1.52344 1.12695 1.55859 1.19336C1.59375 1.25586 1.61914 1.32812 1.63477 1.41016C1.65039 1.49219 1.6582 1.57227 1.6582 1.65039C1.6582 1.99805 1.64844 2.31641 1.62891 2.60547C1.61328 2.89453 1.5957 3.18555 1.57617 3.47852Z" stroke="#F25A0D" stroke-width="0.2" mask="url(#path-1-outside-1_10_9)"/>
</svg>
